# xmcd
#
# Track frame offsets:
#	150
#	27037
#	42781
#	63644
#	87431
#	102286
#	116883
#	137563
#	153670
#	171013
#	190322
#	209169
#
# Disc length: 2991 seconds
#
# Revision: 0
# Processed by: cddbd v1.5.2PL0 Copyright (c) Steve Scherf et al.
# Submitted via: EasyCDDAExtractor 2011.3.0.0
#
DISCID=ac0bad0c
DTITLE=Marc Anderegg - Nameless
DYEAR=2003
DGENRE=Blues
TTITLE0=Don't mess with me
TTITLE1=Bit time dealer
TTITLE2=35-39, inverness terrace
TTITLE3=That same song
TTITLE4=Down at the Doctors
TTITLE5=Straight down boogie
TTITLE6=Barrelhouse Blues
TTITLE7=Struck lucky
TTITLE8=Boogie it up
TTITLE9=Kansas City
TTITLE10=Last ray of hope
TTITLE11=Boogie woogie talk
EXTD=
EXTT0=
EXTT1=
EXTT2=
EXTT3=
EXTT4=
EXTT5=
EXTT6=
EXTT7=
EXTT8=
EXTT9=
EXTT10=
EXTT11=
PLAYORDER=
